# Export of Cubik Model: Cubik Model
# Designed by Keletu with Cubik Studio - https://cubik.studio
# from Cubik OBJ Exporter v1.0
mtllib dimensional_ripper.mtl
v 0.35625 0.9875 0.3625
v 0.6375 0.9875 0.3625
v 0.35625 1.26875 0.3625
v 0.6375 1.26875 0.3625
v 0.6375 0.9875 0.3625
v 0.6375 0.9875 0.64375
v 0.6375 1.26875 0.3625
v 0.6375 1.26875 0.64375
v 0.6375 0.9875 0.64375
v 0.35625 0.9875 0.64375
v 0.6375 1.26875 0.64375
v 0.35625 1.26875 0.64375
v 0.35625 0.9875 0.64375
v 0.35625 0.9875 0.3625
v 0.35625 1.26875 0.64375
v 0.35625 1.26875 0.3625
v 0.6375 1.26875 0.64375
v 0.35625 1.26875 0.64375
v 0.6375 1.26875 0.3625
v 0.35625 1.26875 0.3625
v 0.6375 0.9875 0.3625
v 0.35625 0.9875 0.3625
v 0.6375 0.9875 0.64375
v 0.35625 0.9875 0.64375
v 0.375 1.000 0.375
v 0.625 1.000 0.375
v 0.375 1.25 0.375
v 0.625 1.25 0.375
v 0.625 1.000 0.375
v 0.625 1.000 0.625
v 0.625 1.25 0.375
v 0.625 1.25 0.625
v 0.625 1.000 0.625
v 0.375 1.000 0.625
v 0.625 1.25 0.625
v 0.375 1.25 0.625
v 0.375 1.000 0.625
v 0.375 1.000 0.375
v 0.375 1.25 0.625
v 0.375 1.25 0.375
v 0.625 1.25 0.625
v 0.375 1.25 0.625
v 0.625 1.25 0.375
v 0.375 1.25 0.375
v 0.625 1.000 0.375
v 0.375 1.000 0.375
v 0.625 1.000 0.625
v 0.375 1.000 0.625
v 0.40625 0.875 0.40625
v 0.59375 0.875 0.40625
v 0.40625 1.000 0.40625
v 0.59375 1.000 0.40625
v 0.59375 0.875 0.40625
v 0.59375 0.875 0.59375
v 0.59375 1.000 0.40625
v 0.59375 1.000 0.59375
v 0.59375 0.875 0.59375
v 0.40625 0.875 0.59375
v 0.59375 1.000 0.59375
v 0.40625 1.000 0.59375
v 0.40625 0.875 0.59375
v 0.40625 0.875 0.40625
v 0.40625 1.000 0.59375
v 0.40625 1.000 0.40625
v 0.59375 1.000 0.59375
v 0.40625 1.000 0.59375
v 0.59375 1.000 0.40625
v 0.40625 1.000 0.40625
v 0.375 0.5 0.375
v 0.625 0.5 0.375
v 0.375 0.875 0.375
v 0.625 0.875 0.375
v 0.625 0.5 0.375
v 0.625 0.5 0.625
v 0.625 0.875 0.375
v 0.625 0.875 0.625
v 0.625 0.5 0.625
v 0.375 0.5 0.625
v 0.625 0.875 0.625
v 0.375 0.875 0.625
v 0.375 0.5 0.625
v 0.375 0.5 0.375
v 0.375 0.875 0.625
v 0.375 0.875 0.375
v 0.625 0.875 0.625
v 0.375 0.875 0.625
v 0.625 0.875 0.375
v 0.375 0.875 0.375
v 0.3125 0.4375 0.3125
v 0.6875 0.4375 0.3125
v 0.3125 0.5 0.3125
v 0.6875 0.5 0.3125
v 0.6875 0.4375 0.3125
v 0.6875 0.4375 0.6875
v 0.6875 0.5 0.3125
v 0.6875 0.5 0.6875
v 0.6875 0.4375 0.6875
v 0.3125 0.4375 0.6875
v 0.6875 0.5 0.6875
v 0.3125 0.5 0.6875
v 0.3125 0.4375 0.6875
v 0.3125 0.4375 0.3125
v 0.3125 0.5 0.6875
v 0.3125 0.5 0.3125
v 0.6875 0.5 0.6875
v 0.3125 0.5 0.6875
v 0.6875 0.5 0.3125
v 0.3125 0.5 0.3125
v 0.830067 0.670758 0.40625
v 1.000 0.749999 0.40625
v 0.671586 1.010623 0.40625
v 0.841518 1.089864 0.40625
v 1.000 0.749999 0.40625
v 1.000 0.749999 0.59375
v 0.841518 1.089864 0.40625
v 0.841518 1.089864 0.59375
v 1.000 0.749999 0.59375
v 0.830067 0.670758 0.59375
v 0.841518 1.089864 0.59375
v 0.671586 1.010623 0.59375
v 0.830067 0.670758 0.59375
v 0.830067 0.670758 0.40625
v 0.671586 1.010623 0.59375
v 0.671586 1.010623 0.40625
v 0.841518 1.089864 0.59375
v 0.671586 1.010623 0.59375
v 0.841518 1.089864 0.40625
v 0.671586 1.010623 0.40625
v 0.75 0.0625 0.375
v 1.000 0.0625 0.375
v 0.75 0.75 0.375
v 1.000 0.75 0.375
v 1.000 0.0625 0.375
v 1.000 0.0625 0.625
v 1.000 0.75 0.375
v 1.000 0.75 0.625
v 1.000 0.0625 0.625
v 0.75 0.0625 0.625
v 1.000 0.75 0.625
v 0.75 0.75 0.625
v 0.75 0.0625 0.625
v 0.75 0.0625 0.375
v 0.75 0.75 0.625
v 0.75 0.75 0.375
v 1.000 0.75 0.625
v 0.75 0.75 0.625
v 1.000 0.75 0.375
v 0.75 0.75 0.375
v 1.000 0.0625 0.375
v 0.75 0.0625 0.375
v 1.000 0.0625 0.625
v 0.75 0.0625 0.625
v 0.40625 0.670758 0.169933
v 0.40625 0.749999 0
v 0.40625 1.010623 0.328414
v 0.40625 1.089864 0.158481
v 0.40625 0.749999 0
v 0.59375 0.749999 0
v 0.40625 1.089864 0.158481
v 0.59375 1.089864 0.158481
v 0.59375 0.749999 0
v 0.59375 0.670758 0.169933
v 0.59375 1.089864 0.158481
v 0.59375 1.010623 0.328414
v 0.59375 0.670758 0.169933
v 0.40625 0.670758 0.169933
v 0.59375 1.010623 0.328414
v 0.40625 1.010623 0.328414
v 0.59375 1.089864 0.158481
v 0.59375 1.010623 0.328414
v 0.40625 1.089864 0.158481
v 0.40625 1.010623 0.328414
v 0.375 0.0625 0.25
v 0.375 0.0625 0
v 0.375 0.75 0.25
v 0.375 0.75 0
v 0.375 0.0625 0
v 0.625 0.0625 0
v 0.375 0.75 0
v 0.625 0.75 0
v 0.625 0.0625 0
v 0.625 0.0625 0.25
v 0.625 0.75 0
v 0.625 0.75 0.25
v 0.625 0.0625 0.25
v 0.375 0.0625 0.25
v 0.625 0.75 0.25
v 0.375 0.75 0.25
v 0.625 0.75 0
v 0.625 0.75 0.25
v 0.375 0.75 0
v 0.375 0.75 0.25
v 0.375 0.0625 0
v 0.375 0.0625 0.25
v 0.625 0.0625 0
v 0.625 0.0625 0.25
v 0.169933 0.670758 0.59375
v 0.000 0.749999 0.59375
v 0.328414 1.010623 0.59375
v 0.158482 1.089864 0.59375
v 0.000 0.749999 0.59375
v 0.000 0.749999 0.40625
v 0.158482 1.089864 0.59375
v 0.158482 1.089864 0.40625
v 0.000 0.749999 0.40625
v 0.169933 0.670758 0.40625
v 0.158482 1.089864 0.40625
v 0.328414 1.010623 0.40625
v 0.169933 0.670758 0.40625
v 0.169933 0.670758 0.59375
v 0.328414 1.010623 0.40625
v 0.328414 1.010623 0.59375
v 0.158482 1.089864 0.40625
v 0.328414 1.010623 0.40625
v 0.158482 1.089864 0.59375
v 0.328414 1.010623 0.59375
v 0.25 0.0625 0.625
v 0.000 0.0625 0.625
v 0.25 0.75 0.625
v 0.000 0.75 0.625
v 0.000 0.0625 0.625
v 0.000 0.0625 0.375
v 0.000 0.75 0.625
v 0.000 0.75 0.375
v 0.000 0.0625 0.375
v 0.25 0.0625 0.375
v 0.000 0.75 0.375
v 0.25 0.75 0.375
v 0.25 0.0625 0.375
v 0.25 0.0625 0.625
v 0.25 0.75 0.375
v 0.25 0.75 0.625
v 0.000 0.75 0.375
v 0.25 0.75 0.375
v 0.000 0.75 0.625
v 0.25 0.75 0.625
v 0.000 0.0625 0.625
v 0.25 0.0625 0.625
v 0.000 0.0625 0.375
v 0.25 0.0625 0.375
v 0.59375 0.670758 0.830067
v 0.59375 0.749999 1
v 0.59375 1.010623 0.671586
v 0.59375 1.089864 0.841518
v 0.59375 0.749999 1
v 0.40625 0.749999 1
v 0.59375 1.089864 0.841518
v 0.40625 1.089864 0.841518
v 0.40625 0.749999 1
v 0.40625 0.670758 0.830067
v 0.40625 1.089864 0.841518
v 0.40625 1.010623 0.671586
v 0.40625 0.670758 0.830067
v 0.59375 0.670758 0.830067
v 0.40625 1.010623 0.671586
v 0.59375 1.010623 0.671586
v 0.40625 1.089864 0.841518
v 0.40625 1.010623 0.671586
v 0.59375 1.089864 0.841518
v 0.59375 1.010623 0.671586
v 0.625 0.0625 0.75
v 0.625 0.0625 1
v 0.625 0.75 0.75
v 0.625 0.75 1
v 0.625 0.0625 1
v 0.375 0.0625 1
v 0.625 0.75 1
v 0.375 0.75 1
v 0.375 0.0625 1
v 0.375 0.0625 0.75
v 0.375 0.75 1
v 0.375 0.75 0.75
v 0.375 0.0625 0.75
v 0.625 0.0625 0.75
v 0.375 0.75 0.75
v 0.625 0.75 0.75
v 0.375 0.75 1
v 0.375 0.75 0.75
v 0.625 0.75 1
v 0.625 0.75 0.75
v 0.625 0.0625 1
v 0.625 0.0625 0.75
v 0.375 0.0625 1
v 0.375 0.0625 0.75
v 0.098223 0.0625 0.186612
v 0.186612 0.0625 0.098223
v 0.098223 0.6875 0.186612
v 0.186612 0.6875 0.098223
v 0.186612 0.0625 0.098223
v 0.275 0.0625 0.186612
v 0.186612 0.6875 0.098223
v 0.275 0.6875 0.186612
v 0.275 0.0625 0.186612
v 0.186612 0.0625 0.275
v 0.275 0.6875 0.186612
v 0.186612 0.6875 0.275
v 0.186612 0.0625 0.275
v 0.098223 0.0625 0.186612
v 0.186612 0.6875 0.275
v 0.098223 0.6875 0.186612
v 0.275 0.6875 0.186612
v 0.186612 0.6875 0.275
v 0.186612 0.6875 0.098223
v 0.098223 0.6875 0.186612
v 0.186612 0.0625 0.098223
v 0.098223 0.0625 0.186612
v 0.275 0.0625 0.186612
v 0.186612 0.0625 0.275
v 0.186612 0.0625 0.901777
v 0.098223 0.0625 0.813388
v 0.186612 0.6875 0.901777
v 0.098223 0.6875 0.813388
v 0.098223 0.0625 0.813388
v 0.186612 0.0625 0.725
v 0.098223 0.6875 0.813388
v 0.186612 0.6875 0.725
v 0.186612 0.0625 0.725
v 0.275 0.0625 0.813388
v 0.186612 0.6875 0.725
v 0.275 0.6875 0.813388
v 0.275 0.0625 0.813388
v 0.186612 0.0625 0.901777
v 0.275 0.6875 0.813388
v 0.186612 0.6875 0.901777
v 0.186612 0.6875 0.725
v 0.275 0.6875 0.813388
v 0.098223 0.6875 0.813388
v 0.186612 0.6875 0.901777
v 0.098223 0.0625 0.813388
v 0.186612 0.0625 0.901777
v 0.186612 0.0625 0.725
v 0.275 0.0625 0.813388
v 0.901777 0.0625 0.813388
v 0.813388 0.0625 0.901777
v 0.901777 0.6875 0.813388
v 0.813388 0.6875 0.901777
v 0.813388 0.0625 0.901777
v 0.725 0.0625 0.813388
v 0.813388 0.6875 0.901777
v 0.725 0.6875 0.813388
v 0.725 0.0625 0.813388
v 0.813388 0.0625 0.725
v 0.725 0.6875 0.813388
v 0.813388 0.6875 0.725
v 0.813388 0.0625 0.725
v 0.901777 0.0625 0.813388
v 0.813388 0.6875 0.725
v 0.901777 0.6875 0.813388
v 0.725 0.6875 0.813388
v 0.813388 0.6875 0.725
v 0.813388 0.6875 0.901777
v 0.901777 0.6875 0.813388
v 0.813388 0.0625 0.901777
v 0.901777 0.0625 0.813388
v 0.725 0.0625 0.813388
v 0.813388 0.0625 0.725
v 0.813388 0.0625 0.098223
v 0.901777 0.0625 0.186612
v 0.813388 0.6875 0.098223
v 0.901777 0.6875 0.186612
v 0.901777 0.0625 0.186612
v 0.813388 0.0625 0.275
v 0.901777 0.6875 0.186612
v 0.813388 0.6875 0.275
v 0.813388 0.0625 0.275
v 0.725 0.0625 0.186612
v 0.813388 0.6875 0.275
v 0.725 0.6875 0.186612
v 0.725 0.0625 0.186612
v 0.813388 0.0625 0.098223
v 0.725 0.6875 0.186612
v 0.813388 0.6875 0.098223
v 0.813388 0.6875 0.275
v 0.725 0.6875 0.186612
v 0.901777 0.6875 0.186612
v 0.813388 0.6875 0.098223
v 0.901777 0.0625 0.186612
v 0.813388 0.0625 0.098223
v 0.813388 0.0625 0.275
v 0.725 0.0625 0.186612
v 0.9375 0.000 0.3125
v 0.9375 0.000 0.6875
v 0.9375 0.4375 0.3125
v 0.9375 0.4375 0.6875
v 0.0625 0.000 0.6875
v 0.0625 0.000 0.3125
v 0.0625 0.4375 0.6875
v 0.0625 0.4375 0.3125
v 0.9375 0.4375 0.6875
v 0.0625 0.4375 0.6875
v 0.9375 0.4375 0.3125
v 0.0625 0.4375 0.3125
v 0.9375 0.000 0.3125
v 0.0625 0.000 0.3125
v 0.9375 0.000 0.6875
v 0.0625 0.000 0.6875
v 0.6875 0.4375 0.0625
v 0.6875 0.000 0.0625
v 0.9375 0.4375 0.3125
v 0.9375 0.000 0.3125
v 0.0625 0.4375 0.3125
v 0.0625 0.000 0.3125
v 0.3125 0.4375 0.0625
v 0.3125 0.000 0.0625
v 0.6875 0.4375 0.0625
v 0.9375 0.4375 0.3125
v 0.3125 0.4375 0.0625
v 0.0625 0.4375 0.3125
v 0.9375 0.000 0.3125
v 0.6875 0.000 0.0625
v 0.0625 0.000 0.3125
v 0.3125 0.000 0.0625
v 0.3125 0.4375 0.0625
v 0.3125 0.000 0.0625
v 0.6875 0.4375 0.0625
v 0.6875 0.000 0.0625
v 0.6875 0.4375 0.9375
v 0.9375 0.4375 0.6875
v 0.6875 0.000 0.9375
v 0.9375 0.000 0.6875
v 0.0625 0.4375 0.6875
v 0.3125 0.4375 0.9375
v 0.0625 0.000 0.6875
v 0.3125 0.000 0.9375
v 0.6875 0.4375 0.9375
v 0.3125 0.4375 0.9375
v 0.9375 0.4375 0.6875
v 0.0625 0.4375 0.6875
v 0.9375 0.000 0.6875
v 0.0625 0.000 0.6875
v 0.6875 0.000 0.9375
v 0.3125 0.000 0.9375
v 0.3125 0.4375 0.9375
v 0.6875 0.4375 0.9375
v 0.3125 0.000 0.9375
v 0.6875 0.000 0.9375
vn 0.000 0.000 -1.000
vn 1.000 0.000 0.000
vn 0.000 0.000 1.000
vn -1 0.000 0.000
vn 0.000 1.000 0.000
vn 0.000 -1 0.000
vn 0.9063 0.4226 0.000
vn -0.9063 -0.4226 0.000
vn -0.4226 0.9063 0.000
vn 0.000 0.4226 -0.9063
vn 0.000 -0.4226 0.9063
vn 0.000 0.9063 0.4226
vn -0.9063 0.4226 0.000
vn 0.9063 -0.4226 0.000
vn 0.4226 0.9063 0.000
vn 0.000 0.4226 0.9063
vn 0.000 -0.4226 -0.9063
vn 0.000 0.9063 -0.4226
vn -0.7071 0.000 -0.7071
vn 0.7071 0.000 -0.7071
vn 0.7071 0.000 0.7071
vn -0.7071 0.000 0.7071
vt 1.000 0.25
vt 0.9375 0.25
vt 1.000 0.375
vt 0.9375 0.375
vt 0.9375 0.5
vt 1.000 0.5
vt 0.9375 0.125
vt 1.000 0.125
vt 0.875 0.25
vt 0.8125 0.25
vt 0.875 0.375
vt 0.8125 0.375
vt 0.8125 0.5
vt 0.875 0.5
vt 0.8125 0.125
vt 0.875 0.125
vt 0.953125 0.71875
vt 0.90625 0.71875
vt 0.953125 0.78125
vt 0.90625 0.78125
vt 0.90625 0.875
vt 0.953125 0.875
vt 0.90625 0.5625
vt 0.84375 0.5625
vt 0.90625 0.75
vt 0.84375 0.75
vt 0.84375 0.875
vt 0.84375 0.640625
vt 0.75 0.640625
vt 0.84375 0.671875
vt 0.75 0.671875
vt 0.75 0.875
vt 0.65625 0.21875
vt 0.609375 0.21875
vt 0.65625 0.40625
vt 0.609375 0.40625
vt 0.5625 0.21875
vt 0.5625 0.40625
vt 0.5625 0.5
vt 0.609375 0.5
vt 0.6875 0.53125
vt 0.625 0.53125
vt 0.6875 0.875
vt 0.625 0.875
vt 0.5625 0.53125
vt 0.5625 0.875
vt 0.5625 1
vt 0.625 1
vt 0.71875 0.125
vt 0.75 0.125
vt 0.71875 0.4375
vt 0.75 0.4375
vt 0.75 0.5
vt 0.71875 0.5
vt 0.75 0.0625
vt 0.71875 0.0625
vt 0.242188 0.53125
vt 0.148438 0.53125
vt 0.242188 0.75
vt 0.148438 0.75
vt 0.242188 0.78125
vt 0.148438 0.78125
vt 0.242188 1
vt 0.148438 1
vt 0.21875 0.1875
vt 0.000 0.1875
vt 0.21875 0.375
vt 0.000 0.375
vt 0.25 0.375
vt 0.46875 0.375
vt 0.25 0.1875
vt 0.46875 0.1875
vt 0.328125 0.75
vt 0.328125 0.53125
vt 0.0625 1
vt 0.0625 0.78125
vt 0.15625 0.5
vt 0.0625 0.5
vt 0.3125 0.5
vt 0.40625 0.5
vt 0.421875 0.75
vt 0.421875 0.53125
vt 0.0625 0.75
vt 0.0625 0.53125
vt 0.328125 1
vt 0.328125 0.78125
vt 0.15625 0.0625
vt 0.0625 0.0625
vt 0.3125 0.0625
vt 0.40625 0.0625
vt 0.421875 1
vt 0.421875 0.78125
g Base

usemtl material_all
f 3/3/1 2/2/1 1/1/1
f 2/2/1 3/3/1 4/4/1
f 7/3/2 6/2/2 5/1/2
f 6/2/2 7/3/2 8/4/2
f 11/3/3 10/2/3 9/1/3
f 10/2/3 11/3/3 12/4/3
f 15/3/4 14/2/4 13/1/4
f 14/2/4 15/3/4 16/4/4
f 19/4/5 18/6/5 17/5/5
f 18/6/5 19/4/5 20/3/5
f 23/2/6 22/8/6 21/7/6
f 22/8/6 23/2/6 24/1/6
f 27/11/1 26/10/1 25/9/1
f 26/10/1 27/11/1 28/12/1
f 31/11/2 30/10/2 29/9/2
f 30/10/2 31/11/2 32/12/2
f 35/11/3 34/10/3 33/9/3
f 34/10/3 35/11/3 36/12/3
f 39/11/4 38/10/4 37/9/4
f 38/10/4 39/11/4 40/12/4
f 43/12/5 42/14/5 41/13/5
f 42/14/5 43/12/5 44/11/5
f 47/10/6 46/16/6 45/15/6
f 46/16/6 47/10/6 48/9/6
f 51/19/1 50/18/1 49/17/1
f 50/18/1 51/19/1 52/20/1
f 55/19/2 54/18/2 53/17/2
f 54/18/2 55/19/2 56/20/2
f 59/19/3 58/18/3 57/17/3
f 58/18/3 59/19/3 60/20/3
f 63/19/4 62/18/4 61/17/4
f 62/18/4 63/19/4 64/20/4
f 67/20/5 66/22/5 65/21/5
f 66/22/5 67/20/5 68/19/5
f 71/25/1 70/24/1 69/23/1
f 70/24/1 71/25/1 72/26/1
f 75/25/2 74/24/2 73/23/2
f 74/24/2 75/25/2 76/26/2
f 79/25/3 78/24/3 77/23/3
f 78/24/3 79/25/3 80/26/3
f 83/25/4 82/24/4 81/23/4
f 82/24/4 83/25/4 84/26/4
f 87/26/5 86/21/5 85/27/5
f 86/21/5 87/26/5 88/25/5
f 91/30/1 90/29/1 89/28/1
f 90/29/1 91/30/1 92/31/1
f 95/30/2 94/29/2 93/28/2
f 94/29/2 95/30/2 96/31/2
f 99/30/3 98/29/3 97/28/3
f 98/29/3 99/30/3 100/31/3
f 103/30/4 102/29/4 101/28/4
f 102/29/4 103/30/4 104/31/4
f 107/31/5 106/27/5 105/32/5
f 106/27/5 107/31/5 108/30/5
f 111/35/1 110/34/1 109/33/1
f 110/34/1 111/35/1 112/36/1
f 115/36/7 114/37/7 113/34/7
f 114/37/7 115/36/7 116/38/7
f 119/35/3 118/34/3 117/33/3
f 118/34/3 119/35/3 120/36/3
f 123/36/8 122/37/8 121/34/8
f 122/37/8 123/36/8 124/38/8
f 127/38/9 126/40/9 125/39/9
f 126/40/9 127/38/9 128/36/9
f 131/43/1 130/42/1 129/41/1
f 130/42/1 131/43/1 132/44/1
f 135/44/2 134/45/2 133/42/2
f 134/45/2 135/44/2 136/46/2
f 139/43/3 138/42/3 137/41/3
f 138/42/3 139/43/3 140/44/3
f 143/43/4 142/42/4 141/41/4
f 142/42/4 143/43/4 144/44/4
f 147/46/5 146/48/5 145/47/5
f 146/48/5 147/46/5 148/44/5
f 151/47/6 150/44/6 149/46/6
f 150/44/6 151/47/6 152/48/6
f 155/35/4 154/34/4 153/33/4
f 154/34/4 155/35/4 156/36/4
f 159/36/10 158/37/10 157/34/10
f 158/37/10 159/36/10 160/38/10
f 163/35/2 162/34/2 161/33/2
f 162/34/2 163/35/2 164/36/2
f 167/36/11 166/37/11 165/34/11
f 166/37/11 167/36/11 168/38/11
f 171/38/12 170/40/12 169/39/12
f 170/40/12 171/38/12 172/36/12
f 175/43/4 174/42/4 173/41/4
f 174/42/4 175/43/4 176/44/4
f 179/44/1 178/45/1 177/42/1
f 178/45/1 179/44/1 180/46/1
f 183/43/2 182/42/2 181/41/2
f 182/42/2 183/43/2 184/44/2
f 187/43/3 186/42/3 185/41/3
f 186/42/3 187/43/3 188/44/3
f 191/46/5 190/48/5 189/47/5
f 190/48/5 191/46/5 192/44/5
f 195/47/6 194/44/6 193/46/6
f 194/44/6 195/47/6 196/48/6
f 199/35/3 198/34/3 197/33/3
f 198/34/3 199/35/3 200/36/3
f 203/36/13 202/37/13 201/34/13
f 202/37/13 203/36/13 204/38/13
f 207/35/1 206/34/1 205/33/1
f 206/34/1 207/35/1 208/36/1
f 211/36/14 210/37/14 209/34/14
f 210/37/14 211/36/14 212/38/14
f 215/38/15 214/40/15 213/39/15
f 214/40/15 215/38/15 216/36/15
f 219/43/3 218/42/3 217/41/3
f 218/42/3 219/43/3 220/44/3
f 223/44/4 222/45/4 221/42/4
f 222/45/4 223/44/4 224/46/4
f 227/43/1 226/42/1 225/41/1
f 226/42/1 227/43/1 228/44/1
f 231/43/2 230/42/2 229/41/2
f 230/42/2 231/43/2 232/44/2
f 235/46/5 234/48/5 233/47/5
f 234/48/5 235/46/5 236/44/5
f 239/47/6 238/44/6 237/46/6
f 238/44/6 239/47/6 240/48/6
f 243/35/2 242/34/2 241/33/2
f 242/34/2 243/35/2 244/36/2
f 247/36/16 246/37/16 245/34/16
f 246/37/16 247/36/16 248/38/16
f 251/35/4 250/34/4 249/33/4
f 250/34/4 251/35/4 252/36/4
f 255/36/17 254/37/17 253/34/17
f 254/37/17 255/36/17 256/38/17
f 259/38/18 258/40/18 257/39/18
f 258/40/18 259/38/18 260/36/18
f 263/43/2 262/42/2 261/41/2
f 262/42/2 263/43/2 264/44/2
f 267/44/3 266/45/3 265/42/3
f 266/45/3 267/44/3 268/46/3
f 271/43/4 270/42/4 269/41/4
f 270/42/4 271/43/4 272/44/4
f 275/43/1 274/42/1 273/41/1
f 274/42/1 275/43/1 276/44/1
f 279/46/5 278/48/5 277/47/5
f 278/48/5 279/46/5 280/44/5
f 283/47/6 282/44/6 281/46/6
f 282/44/6 283/47/6 284/48/6
f 287/51/19 286/50/19 285/49/19
f 286/50/19 287/51/19 288/52/19
f 291/51/20 290/50/20 289/49/20
f 290/50/20 291/51/20 292/52/20
f 295/51/21 294/50/21 293/49/21
f 294/50/21 295/51/21 296/52/21
f 299/51/22 298/50/22 297/49/22
f 298/50/22 299/51/22 300/52/22
f 303/52/5 302/54/5 301/53/5
f 302/54/5 303/52/5 304/51/5
f 307/50/6 306/56/6 305/55/6
f 306/56/6 307/50/6 308/49/6
f 311/51/22 310/50/22 309/49/22
f 310/50/22 311/51/22 312/52/22
f 315/51/19 314/50/19 313/49/19
f 314/50/19 315/51/19 316/52/19
f 319/51/20 318/50/20 317/49/20
f 318/50/20 319/51/20 320/52/20
f 323/51/21 322/50/21 321/49/21
f 322/50/21 323/51/21 324/52/21
f 327/52/5 326/54/5 325/53/5
f 326/54/5 327/52/5 328/51/5
f 331/50/6 330/56/6 329/55/6
f 330/56/6 331/50/6 332/49/6
f 335/51/21 334/50/21 333/49/21
f 334/50/21 335/51/21 336/52/21
f 339/51/22 338/50/22 337/49/22
f 338/50/22 339/51/22 340/52/22
f 343/51/19 342/50/19 341/49/19
f 342/50/19 343/51/19 344/52/19
f 347/51/20 346/50/20 345/49/20
f 346/50/20 347/51/20 348/52/20
f 351/52/5 350/54/5 349/53/5
f 350/54/5 351/52/5 352/51/5
f 355/50/6 354/56/6 353/55/6
f 354/56/6 355/50/6 356/49/6
f 359/51/20 358/50/20 357/49/20
f 358/50/20 359/51/20 360/52/20
f 363/51/21 362/50/21 361/49/21
f 362/50/21 363/51/21 364/52/21
f 367/51/22 366/50/22 365/49/22
f 366/50/22 367/51/22 368/52/22
f 371/51/19 370/50/19 369/49/19
f 370/50/19 371/51/19 372/52/19
f 375/52/5 374/54/5 373/53/5
f 374/54/5 375/52/5 376/51/5
f 379/50/6 378/56/6 377/55/6
f 378/56/6 379/50/6 380/49/6
f 383/59/2 382/58/2 381/57/2
f 382/58/2 383/59/2 384/60/2
f 387/63/4 386/62/4 385/61/4
f 386/62/4 387/63/4 388/64/4
f 391/67/5 390/66/5 389/65/5
f 390/66/5 391/67/5 392/68/5
f 395/71/6 394/70/6 393/69/6
f 394/70/6 395/71/6 396/72/6
f 399/59/20 398/74/20 397/73/20
f 398/74/20 399/59/20 400/57/20
f 403/75/19 402/62/19 401/64/19
f 402/62/19 403/75/19 404/76/19
f 407/78/5 406/67/5 405/77/5
f 406/67/5 407/78/5 408/68/5
f 411/70/6 410/79/6 409/69/6
f 410/79/6 411/70/6 412/80/6
f 415/73/1 414/82/1 413/81/1
f 414/82/1 415/73/1 416/74/1
f 419/84/21 418/60/21 417/83/21
f 418/60/21 419/84/21 420/58/21
f 423/61/22 422/85/22 421/63/22
f 422/85/22 423/61/22 424/86/22
f 427/65/5 426/88/5 425/87/5
f 426/88/5 427/65/5 428/66/5
f 431/89/6 430/72/6 429/71/6
f 430/72/6 431/89/6 432/90/6
f 435/86/3 434/91/3 433/85/3
f 434/91/3 435/86/3 436/92/3
