# Made in Blockbench 4.10.4
mtllib portal_generator.mtl

o st1
v 1 0.5 1
v 1 0.5 0
v 1 0 1
v 1 0 0
v 0 0.5 0
v 0 0.5 1
v 0 0 0
v 0 0 1
vt 0.625 0.875
vt 0.75 0.875
vt 0.75 0.8125
vt 0.625 0.8125
vt 0.5 0.875
vt 0.625 0.875
vt 0.625 0.8125
vt 0.5 0.8125
vt 0.875 0.875
vt 1 0.875
vt 1 0.8125
vt 0.875 0.8125
vt 0.75 0.875
vt 0.875 0.875
vt 0.875 0.8125
vt 0.75 0.8125
vt 0.75 0.875
vt 0.625 0.875
vt 0.625 1
vt 0.75 1
vt 0.875 1
vt 0.75 1
vt 0.75 0.875
vt 0.875 0.875
vn 0 0 -1
vn 1 0 0
vn 0 0 1
vn -1 0 0
vn 0 1 0
vn 0 -1 0
usemtl material_all
f 4/4/1 7/3/1 5/2/1 2/1/1
f 3/8/2 4/7/2 2/6/2 1/5/2
f 8/12/3 3/11/3 1/10/3 6/9/3
f 7/16/4 8/15/4 6/14/4 5/13/4
f 6/20/5 1/19/5 2/18/5 5/17/5
f 7/24/6 4/23/6 3/22/6 8/21/6
o st2
v 0.75 1 0.75
v 0.75 1 0.25
v 1 0.5 1
v 1 0.5 0
v 0.25 1 0.75
v 0.25 1 0.25
v 0 0.5 1
v 0 0.5 0
vt 0.125 0.8125
vt 0.09375 0.875
vt 0.03125 0.875
vt 0 0.8125
vt 0.375 0.8125
vt 0.34375 0.875
vt 0.28125 0.875
vt 0.25 0.8125
vt 0.125 1
vt 0.125 0.875
vt 0.25 0.875
vt 0.25 1
vt 0.25 0.875
vt 0.25 1
vt 0.375 1
vt 0.375 0.875
vt 0.5 0.8125
vt 0.46875 0.875
vt 0.40625 0.875
vt 0.375 0.8125
vt 0.25 0.8125
vt 0.21875 0.875
vt 0.15625 0.875
vt 0.125 0.8125
vn 0.8944271909999161 0.44721359549995804 0
vn -0.8944271909999161 0.44721359549995804 0
vn 0 1 0
vn 0 -1 0
vn 0 0.44721359549995804 0.8944271909999161
vn 0 0.44721359549995804 -0.8944271909999161
usemtl material_all
f 12/25/7 10/26/7 9/27/7 11/28/7
f 15/29/8 13/30/8 14/31/8 16/32/8
f 9/33/9 10/34/9 14/35/9 13/36/9
f 12/37/10 11/38/10 15/39/10 16/40/10
f 11/41/11 9/42/11 13/43/11 15/44/11
f 16/45/12 14/46/12 10/47/12 12/48/12
o st2
v 0.75 1.5 0.75
v 0.75 1.5 0.25
v 0.75 1 0.75
v 0.75 1 0.25
v 0.25 1.5 0.25
v 0.25 1.5 0.75
v 0.25 1 0.25
v 0.25 1 0.75
vt 0.0625 0.75
vt 0.125 0.75
vt 0.125 0.6875
vt 0.0625 0.6875
vt 0 0.75
vt 0.0625 0.75
vt 0.0625 0.6875
vt 0 0.6875
vt 0.1875 0.75
vt 0.25 0.75
vt 0.25 0.6875
vt 0.1875 0.6875
vt 0.125 0.75
vt 0.1875 0.75
vt 0.1875 0.6875
vt 0.125 0.6875
vt 0.125 0.75
vt 0.0625 0.75
vt 0.0625 0.8125
vt 0.125 0.8125
vt 0.1875 0.8125
vt 0.125 0.8125
vt 0.125 0.75
vt 0.1875 0.75
vn 0 0 -1
vn 1 0 0
vn 0 0 1
vn -1 0 0
vn 0 1 0
vn 0 -1 0
usemtl material_all
f 20/52/13 23/51/13 21/50/13 18/49/13
f 19/56/14 20/55/14 18/54/14 17/53/14
f 24/60/15 19/59/15 17/58/15 22/57/15
f 23/64/16 24/63/16 22/62/16 21/61/16
f 22/68/17 17/67/17 18/66/17 21/65/17
f 23/72/18 20/71/18 19/70/18 24/69/18
o st3
v -0.23085448747658122 1.1290325959928555 0.65625
v -0.23085448747658122 1.1290325959928555 0.34375
v 0.21265092911252959 0.8981582893753388 0.65625
v 0.21265092911252959 0.8981582893753388 0.34375
v -0.3751509291125293 0.8518417106246614 0.34375
v -0.3751509291125293 0.8518417106246614 0.65625
v 0.06835448747658135 0.6209674040071445 0.34375
v 0.06835448747658135 0.6209674040071445 0.65625
vt 0.0390625 0.6484375
vt 0.078125 0.6484375
vt 0.078125 0.5859375
vt 0.0390625 0.5859375
vt 0 0.6484375
vt 0.0390625 0.6484375
vt 0.0390625 0.5859375
vt 0 0.5859375
vt 0.1171875 0.6484375
vt 0.15625 0.6484375
vt 0.15625 0.5859375
vt 0.1171875 0.5859375
vt 0.078125 0.6484375
vt 0.1171875 0.6484375
vt 0.1171875 0.5859375
vt 0.078125 0.5859375
vt 0.078125 0.6484375
vt 0.0390625 0.6484375
vt 0.0390625 0.6875
vt 0.078125 0.6875
vt 0.1171875 0.6875
vt 0.078125 0.6875
vt 0.078125 0.6484375
vt 0.1171875 0.6484375
vn 0 0 -1
vn 0.4617486132350339 0.8870108331782217 0
vn 0 0 1
vn -0.4617486132350339 -0.8870108331782217 0
vn -0.8870108331782217 0.4617486132350339 0
vn 0.8870108331782217 -0.4617486132350339 0
usemtl material_all
f 28/76/19 31/75/19 29/74/19 26/73/19
f 27/80/20 28/79/20 26/78/20 25/77/20
f 32/84/21 27/83/21 25/82/21 30/81/21
f 31/88/22 32/87/22 30/86/22 29/85/22
f 30/92/23 25/91/23 26/90/23 29/89/23
f 31/96/24 28/95/24 27/94/24 32/93/24
o st4
v 1.3751509291125303 0.8518417106246614 0.65625
v 1.3751509291125303 0.8518417106246614 0.34375
v 0.9316455125234187 0.620967404007144 0.65625
v 0.9316455125234187 0.620967404007144 0.34375
v 1.2308544874765823 1.1290325959928558 0.34375
v 1.2308544874765823 1.1290325959928558 0.65625
v 0.7873490708874706 0.8981582893753384 0.34375
v 0.7873490708874706 0.8981582893753384 0.65625
vt 0.078125 0.6484375
vt 0.0390625 0.6484375
vt 0.0390625 0.5859375
vt 0.078125 0.5859375
vt 0.1171875 0.6484375
vt 0.078125 0.6484375
vt 0.078125 0.5859375
vt 0.1171875 0.5859375
vt 0.15625 0.6484375
vt 0.1171875 0.6484375
vt 0.1171875 0.5859375
vt 0.15625 0.5859375
vt 0.0390625 0.6484375
vt 0 0.6484375
vt 0 0.5859375
vt 0.0390625 0.5859375
vt 0.0390625 0.6484375
vt 0.078125 0.6484375
vt 0.078125 0.6875
vt 0.0390625 0.6875
vt 0.078125 0.6875
vt 0.1171875 0.6875
vt 0.1171875 0.6484375
vt 0.078125 0.6484375
vn 0 0 -1
vn 0.4617486132350339 -0.8870108331782217 0
vn 0 0 1
vn -0.4617486132350339 0.8870108331782217 0
vn 0.8870108331782217 0.4617486132350339 0
vn -0.8870108331782217 -0.4617486132350339 0
usemtl material_all
f 36/100/25 39/99/25 37/98/25 34/97/25
f 35/104/26 36/103/26 34/102/26 33/101/26
f 40/108/27 35/107/27 33/106/27 38/105/27
f 39/112/28 40/111/28 38/110/28 37/109/28
f 38/116/29 33/115/29 34/114/29 37/113/29
f 39/120/30 36/119/30 35/118/30 40/117/30
o st5
v 0.65625 0.8518417106246614 1.3751509291125303
v 0.65625 1.1290325959928558 1.230854487476582
v 0.65625 0.620967404007144 0.9316455125234187
v 0.65625 0.8981582893753384 0.7873490708874704
v 0.34375 1.1290325959928558 1.230854487476582
v 0.34375 0.8518417106246614 1.3751509291125303
v 0.34375 0.8981582893753384 0.7873490708874704
v 0.34375 0.620967404007144 0.9316455125234187
vt 0.0390625 0.6484375
vt 0.078125 0.6484375
vt 0.078125 0.5859375
vt 0.0390625 0.5859375
vt 0 0.6484375
vt 0.0390625 0.6484375
vt 0.0390625 0.5859375
vt 0 0.5859375
vt 0.1171875 0.6484375
vt 0.15625 0.6484375
vt 0.15625 0.5859375
vt 0.1171875 0.5859375
vt 0.078125 0.6484375
vt 0.1171875 0.6484375
vt 0.1171875 0.5859375
vt 0.078125 0.5859375
vt 0.078125 0.6484375
vt 0.0390625 0.6484375
vt 0.0390625 0.6875
vt 0.078125 0.6875
vt 0.1171875 0.6875
vt 0.078125 0.6875
vt 0.078125 0.6484375
vt 0.1171875 0.6484375
vn 0 0.8870108331782217 -0.4617486132350339
vn 1 0 0
vn 0 -0.8870108331782217 0.4617486132350339
vn -1 0 0
vn 0 0.4617486132350339 0.8870108331782217
vn 0 -0.4617486132350339 -0.8870108331782217
usemtl material_all
f 44/124/31 47/123/31 45/122/31 42/121/31
f 43/128/32 44/127/32 42/126/32 41/125/32
f 48/132/33 43/131/33 41/130/33 46/129/33
f 47/136/34 48/135/34 46/134/34 45/133/34
f 46/140/35 41/139/35 42/138/35 45/137/35
f 47/144/36 44/143/36 43/142/36 48/141/36
o st6
v 0.65625 1.1290325959928555 -0.2308544874765811
v 0.65625 0.8518417106246614 -0.3751509291125292
v 0.65625 0.8981582893753388 0.21265092911252959
v 0.65625 0.6209674040071445 0.06835448747658157
v 0.34375 0.8518417106246614 -0.3751509291125292
v 0.34375 1.1290325959928555 -0.2308544874765811
v 0.34375 0.6209674040071445 0.06835448747658157
v 0.34375 0.8981582893753388 0.21265092911252959
vt 0.0390625 0.6484375
vt 0.078125 0.6484375
vt 0.078125 0.5859375
vt 0.0390625 0.5859375
vt 0 0.6484375
vt 0.0390625 0.6484375
vt 0.0390625 0.5859375
vt 0 0.5859375
vt 0.1171875 0.6484375
vt 0.15625 0.6484375
vt 0.15625 0.5859375
vt 0.1171875 0.5859375
vt 0.078125 0.6484375
vt 0.1171875 0.6484375
vt 0.1171875 0.5859375
vt 0.078125 0.5859375
vt 0.078125 0.6484375
vt 0.0390625 0.6484375
vt 0.0390625 0.6875
vt 0.078125 0.6875
vt 0.1171875 0.6875
vt 0.078125 0.6875
vt 0.078125 0.6484375
vt 0.1171875 0.6484375
vn 0 -0.8870108331782217 -0.4617486132350339
vn 1 0 0
vn 0 0.8870108331782217 0.4617486132350339
vn -1 0 0
vn 0 0.4617486132350339 -0.8870108331782217
vn 0 -0.4617486132350339 0.8870108331782217
usemtl material_all
f 52/148/37 55/147/37 53/146/37 50/145/37
f 51/152/38 52/151/38 50/150/38 49/149/38
f 56/156/39 51/155/39 49/154/39 54/153/39
f 55/160/40 56/159/40 54/158/40 53/157/40
f 54/164/41 49/163/41 50/162/41 53/161/41
f 55/168/42 52/167/42 51/166/42 56/165/42
o st4
v 0.59375 1.8125 0.59375
v 0.59375 1.8125 0.40625
v 0.59375 1.625 0.59375
v 0.59375 1.625 0.40625
v 0.40625 1.8125 0.40625
v 0.40625 1.8125 0.59375
v 0.40625 1.625 0.40625
v 0.40625 1.625 0.59375
vt 0.2734375 0.7265625
vt 0.296875 0.7265625
vt 0.296875 0.703125
vt 0.2734375 0.703125
vt 0.25 0.7265625
vt 0.2734375 0.7265625
vt 0.2734375 0.703125
vt 0.25 0.703125
vt 0.3203125 0.7265625
vt 0.34375 0.7265625
vt 0.34375 0.703125
vt 0.3203125 0.703125
vt 0.296875 0.7265625
vt 0.3203125 0.7265625
vt 0.3203125 0.703125
vt 0.296875 0.703125
vt 0.296875 0.7265625
vt 0.2734375 0.7265625
vt 0.2734375 0.75
vt 0.296875 0.75
vt 0.3203125 0.75
vt 0.296875 0.75
vt 0.296875 0.7265625
vt 0.3203125 0.7265625
vn 0 0 -1
vn 1 0 0
vn 0 0 1
vn -1 0 0
vn 0 1 0
vn 0 -1 0
usemtl material_all
f 60/172/43 63/171/43 61/170/43 58/169/43
f 59/176/44 60/175/44 58/174/44 57/173/44
f 64/180/45 59/179/45 57/178/45 62/177/45
f 63/184/46 64/183/46 62/182/46 61/181/46
f 62/188/47 57/187/47 58/186/47 61/185/47
f 63/192/48 60/191/48 59/190/48 64/189/48